<svg xmlns="http://www.w3.org/2000/svg" viewBox="0 0 1162.04 245.72"><defs><style>.cls-1{fill:none;}.cls-2,.cls-3{stroke:#000;stroke-miterlimit:10;}.cls-2{stroke-width:2px;}.cls-3{stroke-width:3px;}</style></defs><g id="Layer_2" data-name="Layer 2"><g id="Layer_1-2" data-name="Layer 1"><rect class="cls-1" width="1162.04" height="245.72"/><path class="cls-2" d="M623.17,126.63H609.06a.38.38,0,0,0-.36.24l-2.79,6.19a.38.38,0,0,1-.35.23H603a.28.28,0,0,1-.27-.39l11.76-25.41a.41.41,0,0,1,.36-.23h2.69a.38.38,0,0,1,.35.22l11.73,25.42a.28.28,0,0,1-.27.39H626.7a.39.39,0,0,1-.35-.23l-2.82-6.19A.39.39,0,0,0,623.17,126.63ZM622,123.49l-5.56-12.2a.39.39,0,0,0-.72,0l-5.5,12.21a.28.28,0,0,0,.27.38h11.24A.28.28,0,0,0,622,123.49Z"/><path class="cls-2" d="M659.08,124.94a.41.41,0,0,0-.38-.19c-.56,0-1,.06-1.36.06h-6.23a.4.4,0,0,0-.41.39v7.37a.4.4,0,0,1-.41.39h-2a.4.4,0,0,1-.41-.39V107.64a.39.39,0,0,1,.41-.38h9.09c3.11,0,5.54.73,7.29,2.24a8.05,8.05,0,0,1,2.57,6.39,9.27,9.27,0,0,1-1.46,5.28A7.51,7.51,0,0,1,662,124a.38.38,0,0,0-.2.57l5.22,7.77a.39.39,0,0,1-.34.6h-2.28a.44.44,0,0,1-.35-.18Zm3.55-4.43a6.51,6.51,0,0,0,0-9,8.31,8.31,0,0,0-5.29-1.51h-6.23a.4.4,0,0,0-.41.39V121.7a.4.4,0,0,0,.41.39h6.23A7.87,7.87,0,0,0,662.63,120.51Z"/><path class="cls-2" d="M710.72,137.73a8.5,8.5,0,0,1-3.36.74c-2.84,0-5.44-1.69-7.85-5h-.36a13.12,13.12,0,0,1-6.67-1.76,13.14,13.14,0,0,1-4.79-17.94,13,13,0,0,1,11.46-6.47,13,13,0,0,1,11.42,6.47,12.66,12.66,0,0,1,1.77,6.58,13.21,13.21,0,0,1-4.72,10.11,13.12,13.12,0,0,1-4.08,2.28.62.62,0,0,0-.22,1,6.66,6.66,0,0,0,4.37,2.12A7.14,7.14,0,0,0,712,134a.63.63,0,0,1,.94.16l.62,1a.61.61,0,0,1-.11.78A10.15,10.15,0,0,1,710.72,137.73ZM694,129.35a10.06,10.06,0,0,0,10.24,0A10.58,10.58,0,0,0,708,115.09a10.5,10.5,0,0,0-3.74-3.75,10.32,10.32,0,0,0-10.24,0,10.45,10.45,0,0,0-3.78,3.75,10.37,10.37,0,0,0,0,10.44A10.34,10.34,0,0,0,694,129.35Z"/><path class="cls-2" d="M742.29,130a7.7,7.7,0,0,0,5.73-2.09,7.81,7.81,0,0,0,2.05-5.75V107.26H753v14.91a10.24,10.24,0,0,1-2.82,7.66c-1.88,1.87-4.52,2.8-7.86,2.8a10.81,10.81,0,0,1-7.89-2.8,10.11,10.11,0,0,1-2.86-7.66V107.26h2.93v14.91a7.78,7.78,0,0,0,2.09,5.75A7.7,7.7,0,0,0,742.29,130Z"/><path class="cls-2" d="M777.23,107.26v25.37h-3.11V107.26Z"/><path class="cls-2" d="M815,107.26v2.68h-8.52v22.69h-3V109.94h-8.48v-2.68Z"/><path class="cls-2" d="M850.71,107.49v2.21a.25.25,0,0,1-.25.24h-13.9a.25.25,0,0,0-.25.24v8a.25.25,0,0,0,.25.24h12.37a.24.24,0,0,1,.25.23v2.18a.24.24,0,0,1-.25.23H836.56a.25.25,0,0,0-.25.24v8.37a.25.25,0,0,0,.25.24h14.37a.25.25,0,0,1,.25.24v2.21a.24.24,0,0,1-.25.23H833.64a.24.24,0,0,1-.25-.23V107.49a.24.24,0,0,1,.25-.23h16.82A.24.24,0,0,1,850.71,107.49Z"/><path class="cls-2" d="M882.06,109.86a10,10,0,0,0-8.75,5,10,10,0,0,0-1.35,5.06,9.81,9.81,0,0,0,1.35,5,10.1,10.1,0,0,0,8.75,5,10.23,10.23,0,0,0,3.94-.82,10.93,10.93,0,0,0,3.16-2,.33.33,0,0,1,.47,0l1.31,1.42a.3.3,0,0,1,0,.42,14.29,14.29,0,0,1-4,2.58,12.79,12.79,0,0,1-11.42-.68,12.65,12.65,0,0,1-4.64-17.39,13.09,13.09,0,0,1,16.09-5.31,12.56,12.56,0,0,1,4,2.51.3.3,0,0,1,0,.41l-1.3,1.58a.35.35,0,0,1-.49,0,11,11,0,0,0-3.11-2.06A10.3,10.3,0,0,0,882.06,109.86Z"/><path class="cls-2" d="M927.43,107.26V110h-8.52v23h-3V110h-8.49v-2.71Z"/><path class="cls-2" d="M955.58,130a7.38,7.38,0,0,0,5.59-2.09,7.87,7.87,0,0,0,2-5.75V107.26H966v14.91a10.85,10.85,0,0,1-18.13,7.66,10.27,10.27,0,0,1-2.79-7.66V107.26H948v14.91a7.88,7.88,0,0,0,2,5.75A7.38,7.38,0,0,0,955.58,130Z"/><path class="cls-2" d="M1044.29,126.14h-14a.3.3,0,0,0-.27.17l-2.78,6.16a.29.29,0,0,1-.27.16h-2.57a.27.27,0,0,1-.26-.37l11.57-24.84a.28.28,0,0,1,.26-.16h2.75a.28.28,0,0,1,.26.16l11.53,24.84a.27.27,0,0,1-.26.37h-2.65a.28.28,0,0,1-.26-.16l-2.83-6.16A.29.29,0,0,0,1044.29,126.14Zm-1.19-3L1037.56,111a.3.3,0,0,0-.53,0l-5.48,12.09a.27.27,0,0,0,.27.37h11A.27.27,0,0,0,1043.1,123.09Z"/><path class="cls-2" d="M999.34,124.71a.43.43,0,0,0-.38-.18c-.56,0-1,0-1.35,0h-6.24a.41.41,0,0,0-.41.39v7.28a.39.39,0,0,1-.4.38h-2a.39.39,0,0,1-.4-.38V107.64a.39.39,0,0,1,.4-.38h9.1c3.1,0,5.53.72,7.28,2.21a7.88,7.88,0,0,1,2.58,6.31A9,9,0,0,1,1006,121a7.59,7.59,0,0,1-3.7,2.81.37.37,0,0,0-.21.56l5.22,7.67a.38.38,0,0,1-.34.59h-2.28a.4.4,0,0,1-.34-.18Zm3.55-4.37a6.34,6.34,0,0,0,0-8.91,8.36,8.36,0,0,0-5.28-1.49h-6.24a.4.4,0,0,0-.41.38v11.2a.4.4,0,0,0,.41.38h6.24A7.9,7.9,0,0,0,1002.89,120.34Z"/><path d="M153.86,87.13c-5.17,0-9.16.87-12.26,2.76A9,9,0,0,0,137,98a10.88,10.88,0,0,0,2.95,7.69,20.15,20.15,0,0,0,7.39,4.78c2.95,1.16,7.09,2.61,12.4,4.2,7,2.18,12.71,4.21,17.14,6.09a31.23,31.23,0,0,1,11.22,8.84c3.1,3.92,4.58,9.13,4.58,15.51a26.11,26.11,0,0,1-4.87,15.66,32.68,32.68,0,0,1-13.89,10.43,52.2,52.2,0,0,1-20.23,3.63,62.45,62.45,0,0,1-23-4.35,59.94,59.94,0,0,1-19.2-11.89L119,143.81a57.25,57.25,0,0,0,17.28,11A43.43,43.43,0,0,0,154,158.88q9.09,0,14.18-3.48a10.55,10.55,0,0,0,5.17-9.27,11,11,0,0,0-2.95-7.83,24.07,24.07,0,0,0-7.68-4.93c-3.1-1.16-7.24-2.46-12.41-4.06a135.6,135.6,0,0,1-17-5.94,28.71,28.71,0,0,1-11.08-8.7c-3.1-3.91-4.73-9-4.73-15.22a25.47,25.47,0,0,1,4.73-15.07,31.33,31.33,0,0,1,13.29-10,52.06,52.06,0,0,1,19.65-3.48,69.44,69.44,0,0,1,36.18,10.58l-7.24,15.07a70.41,70.41,0,0,0-15.95-7.1A50,50,0,0,0,153.86,87.13Z"/><path d="M306.76,132.78H280.9v25.66h-11V132.78h-26V121.2h26V95.55h11V121.2h25.86Z"/><path d="M446.4,106.38c0,11.73-3.52,20.94-10.55,27.32-7.19,6.53-17.16,9.8-30.06,9.8h-23.6v31.33h-17.3V70.9h40.9c12.9,0,22.87,3.12,30.06,9.2Q446.4,89.46,446.4,106.38Zm-16.56.45c0-6.68-2.06-11.73-6.31-15.15s-10.41-5-18.47-5H382.19v41.12h22.87q12.09,0,18.47-5.34C427.78,119,429.84,113.81,429.84,106.83Z"/><line class="cls-3" x1="527.62" y1="174.27" x2="527.62" y2="71.45"/></g></g></svg>